 <?xml version="1.0" encoding="utf-8"?>
<!-- Generator: Adobe Illustrator 23.0.3, SVG Export Plug-In . SVG Version: 6.00 Build 0)  -->
<svg version="1.1" id="Calque_1" xmlns="http://www.w3.org/2000/svg" xmlns:xlink="http://www.w3.org/1999/xlink" x="0px" y="0px"
	 viewBox="0 0 32 32" style="enable-background:new 0 0 32 32;" xml:space="preserve">
<style type="text/css">
	.st0{fill:#FFFFFF;}
</style>
<g>
	<path class="st0" d="M2.5,29.5v-4.4c0-5.29,4.31-9.6,9.6-9.6h7.8c5.29,0,9.6,4.31,9.6,9.6v4.4H2.5z"/>
	<path d="M19.9,16c5.02,0,9.1,4.08,9.1,9.1V29H3v-3.9c0-5.02,4.08-9.1,9.1-9.1H19.9 M19.9,15h-7.8C6.52,15,2,19.52,2,25.1V30h28
		v-4.9C30,19.52,25.48,15,19.9,15L19.9,15z"/>
</g>
<g>
	<ellipse class="st0" cx="15.42" cy="8" rx="4.92" ry="4.5"/>
	<path d="M15.42,4c2.44,0,4.42,1.79,4.42,4s-1.98,4-4.42,4S11,10.21,11,8S12.98,4,15.42,4 M15.42,3C12.43,3,10,5.24,10,8
		s2.43,5,5.42,5s5.42-2.24,5.42-5S18.41,3,15.42,3L15.42,3z"/>
</g>
</svg>
